# xmcd
#
# Track frame offsets:
#  150
#  21186
#  30925
#  45563
#  65986
#  76247
#  86498
#  103103
#  111559
#  124147
#  141451
#  150745
#  168817
#
# Disc length: 2496 seconds
#
# Revision: 0
# Processed by: cddbd v1.5.2PL0 Copyright (c) Steve Scherf et al.
# Submitted via: Collectorz.com_Music_Collector 6.11
#
DISCID=ab09be0d
DTITLE=Adolphus Bell - One Man Band
DYEAR=2006
DGENRE=Blues
TTITLE0=One Man Band
TTITLE1=Have You Ever Had The Blues?
TTITLE2=Alabama Women
TTITLE3=You Got To Hurt Before You Heal
TTITLE4=I Need Some Money
TTITLE5=Ain't No Sunshine
TTITLE6=Child Support Blues
TTITLE7=Cherry Pie
TTITLE8=Have You Ever Plowed A Mule?
TTITLE9=Passport Blues
TTITLE10=Let The Good Times Roll
TTITLE11=Down On Me
TTITLE12=Black Man's Dreams
EXTD=
EXTT0=
EXTT1=
EXTT2=
EXTT3=
EXTT4=
EXTT5=
EXTT6=
EXTT7=
EXTT8=
EXTT9=
EXTT10=
EXTT11=
EXTT12=
PLAYORDER=
